HIERARCHY
ROOT RootJoint
{
    OFFSET   0.000000   0.000000   0.000000
    CHANNELS 6 Xposition Yposition Zposition Xrotation Yrotation Zrotation
    JOINT pelvis_lowerback
    {
        OFFSET   0.000000   0.093605   0.000000
        CHANNELS 3 Xrotation Yrotation Zrotation
        JOINT lowerback_torso
        {
            OFFSET   0.000000   0.100000   0.000000
            CHANNELS 3 Xrotation Yrotation Zrotation
            JOINT torso_head
            {
                OFFSET   0.000000   0.282350   0.000000
                CHANNELS 3 Xrotation Yrotation Zrotation
                End Site
                {
                    OFFSET   0.000000   0.192650   0.000000
                }
            }
            JOINT rTorso_Clavicle
            {
                OFFSET  -0.001000   0.157500   0.000000
                CHANNELS 3 Xrotation Yrotation Zrotation
                JOINT rShoulder
                {
                    OFFSET  -0.117647   0.000000   0.000000
                    CHANNELS 3 Xrotation Yrotation Zrotation
                    JOINT rElbow
                    {
                        OFFSET  -0.245000   0.000000   0.000000
                        CHANNELS 3 Xrotation Yrotation Zrotation
                        JOINT rWrist
                        {
                            OFFSET  -0.240000   0.000000   0.000000
                            CHANNELS 3 Xrotation Yrotation Zrotation
                            End Site
                            {
                                OFFSET  -0.116353  -0.002500   0.000000
                            }
                        }
                    }
                }
            }
            JOINT lTorso_Clavicle
            {
                OFFSET   0.001000   0.157500   0.000000
                CHANNELS 3 Xrotation Yrotation Zrotation
                JOINT lShoulder
                {
                    OFFSET   0.117647   0.000000   0.000000
                    CHANNELS 3 Xrotation Yrotation Zrotation
                    JOINT lElbow
                    {
                        OFFSET   0.245000   0.000000   0.000000
                        CHANNELS 3 Xrotation Yrotation Zrotation
                        JOINT lWrist
                        {
                            OFFSET   0.240000   0.000000   0.000000
                            CHANNELS 3 Xrotation Yrotation Zrotation
                            End Site
                            {
                                OFFSET   0.116353  -0.002500   0.000000
                            }
                        }
                    }
                }
            }
        }
    }
    JOINT rHip
    {
        OFFSET  -0.100000  -0.051395   0.000000
        CHANNELS 3 Xrotation Yrotation Zrotation
        JOINT rKnee
        {
            OFFSET   0.000000  -0.410000   0.000000
            CHANNELS 3 Xrotation Yrotation Zrotation
            JOINT rAnkle
            {
                OFFSET   0.000000  -0.390000   0.000000
                CHANNELS 3 Xrotation Yrotation Zrotation
                JOINT rToeJoint
                {
                    OFFSET   0.000000  -0.050000   0.130000
                    CHANNELS 3 Xrotation Yrotation Zrotation
                    End Site
                    {
                        OFFSET  -0.010000   0.002000   0.060000
                    }
                }
            }
        }
    }
    JOINT lHip
    {
        OFFSET   0.100000  -0.051395   0.000000
        CHANNELS 3 Xrotation Yrotation Zrotation
        JOINT lKnee
        {
            OFFSET   0.000000  -0.410000   0.000000
            CHANNELS 3 Xrotation Yrotation Zrotation
            JOINT lAnkle
            {
                OFFSET   0.000000  -0.390000   0.000000
                CHANNELS 3 Xrotation Yrotation Zrotation
                JOINT lToeJoint
                {
                    OFFSET   0.000000  -0.050000   0.130000
                    CHANNELS 3 Xrotation Yrotation Zrotation
                    End Site
                    {
                        OFFSET   0.010000   0.002000   0.060000
                    }
                }
            }
        }
    }
}
MOTION
Frames: 10
Frame Time:   0.008333
 -2.376719   0.925631   3.975860   0.000000   0.000000   0.000000   0.000000   0.000000   0.000000   0.000000   0.000000   0.000000   0.000000   0.000000   0.000000   0.000000   0.000000   0.000000   0.000000   0.000000   0.000000   0.000000   0.000000   0.000000   0.000000   0.000000   0.000000   0.000000   0.000000   0.000000   0.000000   0.000000   0.000000   0.000000   0.000000   0.000000   0.000000   0.000000   0.000000   0.000000   0.000000   0.000000   0.000000   0.000000   0.000000   0.000000   0.000000   0.000000   0.000000   0.000000   0.000000   0.000000   0.000000   0.000000   0.000000   0.000000   0.000000   0.000000   0.000000   0.000000   0.000000   0.000000   0.000000
 -2.377426   0.926238   3.970766   1.119268   0.893503  -0.505275  -0.492270  -0.161290   0.626408   0.329807  -0.290424  -0.174949  -1.042252   0.847560  -0.414785   0.452660  -0.503045   0.243004   0.454132   0.203034   2.183607   0.018103   0.867866  -0.014261   0.217266  -0.882117  -2.493608  -0.000596  -0.605299  -0.777241   1.296492  -0.060902  -1.584753   0.044074  -2.057131   0.041290   0.255703   1.366809   2.586500  -2.458715  -0.697538   0.621673   1.921109  -0.002498   0.003708  -0.506620  -0.759398   0.165908  -0.153017   0.000425   0.000724  -3.123993   0.047201   0.689505   3.641699  -0.005903   0.031057  -2.051329   0.885747   0.096632   0.796063  -0.002186   0.012889
 -2.378725   0.927144   3.963811   2.078620   1.986355  -1.085461  -0.539947  -0.370573   1.208174   0.934020  -0.693697  -0.352849  -2.028194   1.692191  -0.818525   0.900698  -0.790424   1.215037   0.884871   0.576778   4.948658   0.042080   1.737823  -0.029949   0.457318  -1.483390  -4.186128  -0.011294  -1.591749  -2.242779   2.498862  -0.479239  -3.629647   0.106156  -4.124612   0.083837   0.559232   1.955619   4.475272  -5.082452  -1.415576   1.293409   3.809244  -0.005137   0.010642  -0.970409  -1.476030   0.311613  -0.295601   0.000787   0.000905  -6.320052   0.092832   1.525002   7.376299  -0.010891   0.066474  -3.954635   1.731796   0.222022   1.538188  -0.004332   0.023940
 -2.380452   0.927959   3.955893   2.938156   3.105743  -1.664138  -0.308015  -0.615524   1.704773   1.718976  -1.145640  -0.540750  -2.915645   2.490704  -1.187601   1.318646  -0.831234   2.612988   1.272131   1.141905   8.068706   0.066923   2.606831  -0.045031   0.712035  -1.748247  -5.073217  -0.072562  -2.821609  -4.099275   3.588476  -1.147163  -5.887686   0.170822  -6.138996   0.121617   0.888496   1.991830   5.577018  -7.793315  -2.122497   1.904131   5.512232  -0.006985   0.016963  -1.404202  -2.144408   0.440675  -0.435380   0.001092   0.000866  -9.394188   0.095058   2.387661  10.836551  -0.013004   0.094254  -5.732865   2.521232   0.369108   2.221425  -0.005979   0.031816
 -2.382445   0.928413   3.947640   3.723240   4.196435  -2.225177   0.119841  -0.881694   2.134964   2.605144  -1.617480  -0.726494  -3.716245   3.240964  -1.528164   1.685785  -0.660721   4.281666   1.583117   1.840370  11.248020   0.089370   3.473086  -0.058162   0.993862  -1.679725  -5.332624  -0.205847  -4.206620  -6.170155   4.561209  -1.996015  -8.219860   0.229925  -8.083546   0.152352   1.246867   1.629170   6.103413 -10.523600  -2.807257   2.425144   7.016654  -0.007959   0.021656  -1.811786  -2.768655   0.555243  -0.575061   0.001347   0.000725 -12.294300   0.050572   3.240227  14.026485  -0.012988   0.113454  -7.399034   3.254478   0.532338   2.831753  -0.007052   0.036491
 -2.384602   0.928312   3.939510   4.460499   5.226401  -2.764370   0.667693  -1.156226   2.513451   3.530276  -2.093865  -0.910343  -4.440074   3.945258  -1.839000   1.987808  -0.342624   6.073669   1.814454   2.621282  14.383761   0.107682   4.325038  -0.068328   1.297467  -1.349858  -5.204272  -0.421752  -5.667317  -8.343900   5.417795  -2.961395 -10.541645   0.279355  -9.945756   0.174904   1.624976   0.994428   6.243689 -13.238758  -3.469346   2.855261   8.347281  -0.008311   0.024513  -2.194757  -3.351810   0.657386  -0.713419   0.001555   0.000559 -15.005523  -0.034822   4.072435  16.980193  -0.011895   0.125056  -8.960242   3.934427   0.707265   3.376528  -0.007696   0.038618
 -2.386852   0.927512   3.931827   5.165191   6.178315  -3.279169   1.278004  -1.432497   2.845726   4.451212  -2.566909  -1.096523  -5.096199   4.606101  -2.120928   2.222202   0.057860   7.901451   1.970870   3.434335  17.422123   0.121085   5.150019  -0.074936   1.609227  -0.848388  -4.843617  -0.718699  -7.134121 -10.555476   6.164413  -3.985420 -12.808143   0.317481 -11.715287   0.189100   2.006828   0.198448   6.126243 -15.909831  -4.107882   3.202857   9.530496  -0.008305   0.025745  -2.554295  -3.896617   0.748877  -0.848899   0.001721   0.000411 -17.520023  -0.154198   4.882698  19.728747  -0.010536   0.130503 -10.422607   4.564439   0.890228   3.864560  -0.008059   0.038864
 -2.388583   0.925334   3.923135   5.818917   7.012875  -3.942503   2.420034  -1.605426   3.584487   5.000223  -2.942116  -1.288351  -5.882881   5.107440  -2.601198   2.107660   0.827052   9.032458   1.494059   3.837500  20.239259   0.132969   6.157021  -0.078316   1.609277  -0.740255  -3.639976  -1.050727  -8.685089 -12.231585   6.916637  -5.514957 -15.093784   0.351169 -13.676396   0.211176   2.097607  -0.265957   5.148066 -18.866655  -4.929970   3.530149  11.476119  -0.008312   0.027010  -2.732747  -4.455212   0.682905  -0.803187   0.001321   0.000246 -20.443880   0.045200   5.791783  23.442374  -0.002536   0.155615 -11.994357   4.852101   1.006248   3.951424  -0.006679   0.032497
 -2.389990   0.922042   3.914772   6.394032   7.729241  -4.589353   3.603149  -1.727763   4.365033   5.547884  -3.280735  -1.437456  -6.606081   5.581100  -3.036046   1.914208   1.701366   9.868170   0.988143   4.292293  22.711928   0.137336   7.137055  -0.080024   1.592295  -0.528580  -2.623333  -1.476026 -10.296243 -13.702272   7.529761  -7.105471 -17.121954   0.368842 -15.571145   0.225189   2.216649  -0.990822   4.221514 -21.683811  -5.720514   3.752412  13.356125  -0.007401   0.026707  -2.890566  -4.979896   0.619035  -0.727808   0.000994   0.000043 -23.237630   0.208683   6.643499  27.122004   0.008336   0.171008 -13.456578   5.116549   1.123674   4.039829  -0.005547   0.027325
 -2.391181   0.917743   3.907039   6.933348   8.328994  -5.201830   4.737932  -1.815415   5.126065   6.060698  -3.588649  -1.564944  -7.265802   6.029339  -3.425382   1.677634   2.592132  10.525375   0.474051   4.749623  24.928785   0.136693   8.076838  -0.079432   1.585680  -0.210818  -1.851141  -1.963035 -11.867227 -15.029267   8.029457  -8.666033 -18.943653   0.374072 -17.367793   0.230578   2.345272  -1.842713   3.465211 -24.351427  -6.466041   3.891245  15.100729  -0.006237   0.025082  -3.038509  -5.470109   0.557688  -0.658445   0.000750  -0.000125 -25.848875   0.329154   7.439333  30.579386   0.018851   0.175667 -14.821077   5.359062   1.241911   4.123886  -0.004603   0.023007
